<svg width="72" height="72" viewBox="0 0 72 72" fill="none" xmlns="http://www.w3.org/2000/svg">
<path d="M43.7413 34.9891V32.6561C43.7413 31.5561 41.9523 30.4561 39.7653 30.2151L38.7163 30.0981C36.5293 29.8561 34.7403 28.2471 34.7403 26.3241C34.7403 24.4011 36.5403 22.9901 38.7403 22.9901H48.7403C50.9414 22.9453 52.797 24.6217 52.9753 26.8161L53.6323 38.0291" stroke="black" stroke-width="2" stroke-linecap="round" stroke-linejoin="round"/>
<path d="M37.9633 38.0552C39.5935 36.5756 41.5869 35.5549 43.7403 35.0972" stroke="black" stroke-width="2" stroke-linecap="round" stroke-linejoin="round"/>
<path d="M16.7761 39.479C17.9749 48.5081 25.7414 55.2112 34.8488 55.0771C44.998 55.0771 53.6343 47.9033 53.6343 37.3572" stroke="black" stroke-width="2" stroke-miterlimit="10" stroke-linecap="round"/>
<path d="M16.7761 39.479V35.9583" stroke="black" stroke-width="2" stroke-linecap="round" stroke-linejoin="round"/>
<path d="M20.3076 32.9646C18.2438 32.8119 16.685 31.0304 16.8076 28.9646V21.9646C16.5498 20.0316 17.9077 18.2556 19.8407 17.9977C21.7737 17.7399 23.5497 19.0978 23.8076 21.0308C23.8489 21.3407 23.8489 21.6547 23.8076 21.9645V28.9645C23.9302 31.0304 22.3714 32.8119 20.3076 32.9646Z" stroke="black" stroke-width="2" stroke-linecap="round" stroke-linejoin="round"/>
<path d="M28.7444 31.8272C25.4224 33.0543 23.7474 29.893 23.87 27.8272V20.8272C23.6122 18.8942 24.9701 17.1182 26.9031 16.8603C28.8361 16.6025 30.6121 17.9604 30.87 19.8934C30.9113 20.2033 30.9113 20.5173 30.87 20.8271" stroke="black" stroke-width="2" stroke-linecap="round" stroke-linejoin="round"/>
<path d="M30.9324 24.4656V19.148C30.6746 17.215 32.0325 15.439 33.9655 15.1811C35.8985 14.9233 37.6745 16.2812 37.9324 18.2142C37.9737 18.5241 37.9737 18.8381 37.9324 19.1479" stroke="black" stroke-width="2" stroke-linecap="round" stroke-linejoin="round"/>
<path d="M37.9948 19.148C37.737 17.215 39.0949 15.439 41.0279 15.1811C42.9609 14.9233 44.7369 16.2812 44.9948 18.2142C45.0361 18.5241 45.0361 18.8381 44.9948 19.1479" stroke="black" stroke-width="2" stroke-linecap="round" stroke-linejoin="round"/>
</svg>
