<svg width="72" height="72" viewBox="0 0 72 72" fill="none" xmlns="http://www.w3.org/2000/svg">
<path d="M52.62 31.1299L54.42 8.94995C54.0773 3.98595 47.641 3.92995 47.193 8.92395L44.773 26.284C44.473 28.463 43.495 30.246 42.607 30.246C41.719 30.246 40.762 28.4609 40.481 26.2789L38.25 8.93895C37.4304 3.66095 30.811 4.61695 31.213 8.94005L33.74 29.9701" stroke="black" stroke-width="2" stroke-linecap="round" stroke-linejoin="round"/>
<path d="M53.63 50.0798C53.63 59.9518 45.61 66.9598 35.74 66.9598" stroke="black" stroke-width="2" stroke-linecap="round" stroke-linejoin="round"/>
<path d="M43.74 47.2899V44.9569C43.74 43.8569 41.951 42.7569 39.764 42.5159L38.715 42.3989C36.528 42.1569 34.739 40.5479 34.739 38.6249C34.739 36.7019 36.539 35.2909 38.739 35.2909H48.739C50.94 35.2461 52.796 36.9229 52.974 39.1169L53.631 50.3269" stroke="black" stroke-width="2" stroke-linecap="round" stroke-linejoin="round"/>
<path d="M37.96 50.3599C39.59 48.8799 41.584 47.8599 43.737 47.4019" stroke="black" stroke-width="2" stroke-linecap="round" stroke-linejoin="round"/>
<path d="M18.53 52.0998C19.672 60.6998 27.069 67.0798 35.74 66.9598C45.407 66.9598 53.63 60.1268 53.63 50.0798" stroke="black" stroke-width="2" stroke-miterlimit="10" stroke-linecap="round"/>
<path d="M31.75 49.72C31.75 50.978 31.0791 52.14 29.99 52.768C28.9009 53.396 27.559 53.3968 26.47 52.768C25.381 52.1392 24.71 50.977 24.71 49.72V33.76C24.71 32.502 25.3809 31.34 26.47 30.712C27.5591 30.084 28.901 30.0832 29.99 30.712C31.079 31.3408 31.75 32.503 31.75 33.761V49.72Z" stroke="black" stroke-width="2" stroke-linecap="round" stroke-linejoin="round"/>
<path d="M24.71 44.94C24.71 46.202 24.0391 47.367 22.95 47.998C21.8609 48.629 20.519 48.6288 19.43 47.998C18.341 47.3672 17.67 46.202 17.67 44.94V37.003C17.67 35.741 18.3409 34.576 19.43 33.945C20.519 33.3142 21.861 33.3142 22.95 33.945C24.039 34.5758 24.71 35.741 24.71 37.003V44.94Z" stroke="black" stroke-width="2" stroke-linecap="round" stroke-linejoin="round"/>
</svg>
