<svg width="72" height="72" viewBox="0 0 72 72" fill="none" xmlns="http://www.w3.org/2000/svg">
<path d="M29.3038 16.1452C29.5879 14.2159 28.2542 12.4216 26.3249 12.1375C24.3956 11.8534 22.6013 13.1871 22.3172 15.1164C22.2716 15.4258 22.2674 15.7399 22.3046 16.0505L22.0475 35.0488L22.0523 36L22.2451 26.3747C22.5292 24.4454 21.1955 22.6511 19.2662 22.367C17.3369 22.0829 15.5426 23.4166 15.2585 25.3459C15.2129 25.6553 15.2087 25.9694 15.2459 26.28L15.0699 39.2787L15.1225 49.364C15.5473 57.674 22.8744 62.9933 31.1825 62.5686C35.9742 62.3032 40.5024 60.2906 43.9102 56.9115C46.828 53.8215 56.1913 43.095 56.1913 43.095C57.202 41.6859 57.078 39.7594 55.8951 38.4914C54.7181 37.301 52.8372 37.178 51.5151 38.2049L43.3199 45.3549L43.281 39.9549L43.321 18.1049C43.6051 16.1756 42.2714 14.3813 40.3421 14.0972C38.4128 13.8131 36.6185 15.1468 36.3344 17.0761C36.2888 17.3855 36.2846 17.6996 36.3218 18.0102L36.2263 25.01L36.0403 35.6461L36.4074 13.4533C36.6915 11.524 35.3578 9.72969 33.4285 9.44559C31.4992 9.16149 29.7049 10.4952 29.4208 12.4245C29.3752 12.7339 29.371 13.048 29.4082 13.3586L29.2324 33.8124" stroke="black" stroke-width="2" stroke-linecap="round" stroke-linejoin="round"/>
</svg>
